<?xml version="1.0" encoding="utf-8"?>
<!-- Generator: Adobe Illustrator 23.0.3, SVG Export Plug-In . SVG Version: 6.00 Build 0)  -->
<svg version="1.1"
	 id="Livello_1" xmlns:cc="http://creativecommons.org/ns#" xmlns:dc="http://purl.org/dc/elements/1.1/" xmlns:inkscape="http://www.inkscape.org/namespaces/inkscape" xmlns:rdf="http://www.w3.org/1999/02/22-rdf-syntax-ns#" xmlns:sodipodi="http://sodipodi.sourceforge.net/DTD/sodipodi-0.dtd" xmlns:svg="http://www.w3.org/2000/svg"
	 xmlns="http://www.w3.org/2000/svg" xmlns:xlink="http://www.w3.org/1999/xlink" x="0px" y="0px" viewBox="0 0 51 51"
	 style="enable-background:new 0 0 51 51;" xml:space="preserve">
<style type="text/css">
	.st0{fill:#FFFFFF;}
</style>
<g transform="translate(0,-284.29999)">
	<path class="st0" d="M25.5,284.3C11.4,284.3,0,295.7,0,309.8s11.4,25.5,25.5,25.5c14.1,0,25.5-11.4,25.5-25.5
		S39.6,284.3,25.5,284.3z M25.5,286.9c12.7,0,23,10.3,23,23c0,12.7-10.3,23-23,23c-12.7,0-23-10.3-23-23
		C2.5,297.1,12.8,286.9,25.5,286.9z M16.5,297.1c-0.7,0-1.3,0.6-1.3,1.3c0,0.7,0.6,1.3,1.3,1.3h17.9c0.7,0,1.3-0.6,1.3-1.3
		c0-0.7-0.6-1.3-1.3-1.3H16.5z M25.5,302.2c-0.3,0-0.6,0.1-0.9,0.4l-8.9,8.9c-0.5,0.5-0.5,1.3,0,1.8c0.5,0.5,1.3,0.5,1.8,0
		c0,0,0,0,0,0l6.8-6.8v14.8c0,0.7,0.6,1.3,1.3,1.2c0.7,0,1.2-0.6,1.2-1.2v-14.8l6.8,6.8c0.5,0.5,1.3,0.6,1.8,0.1
		c0.5-0.5,0.6-1.3,0.1-1.8c0-0.1-0.1-0.1-0.1-0.1l-8.9-8.9C26.1,302.3,25.8,302.2,25.5,302.2L25.5,302.2z"/>
</g>
</svg>
