<?xml version="1.0" encoding="utf-8"?>
<!-- Generator: Adobe Illustrator 23.0.3, SVG Export Plug-In . SVG Version: 6.00 Build 0)  -->
<svg version="1.1"
	 id="Livello_1" xmlns:cc="http://creativecommons.org/ns#" xmlns:dc="http://purl.org/dc/elements/1.1/" xmlns:inkscape="http://www.inkscape.org/namespaces/inkscape" xmlns:rdf="http://www.w3.org/1999/02/22-rdf-syntax-ns#" xmlns:sodipodi="http://sodipodi.sourceforge.net/DTD/sodipodi-0.dtd" xmlns:svg="http://www.w3.org/2000/svg"
	 xmlns="http://www.w3.org/2000/svg" xmlns:xlink="http://www.w3.org/1999/xlink" x="0px" y="0px" viewBox="0 0 36 36"
	 style="enable-background:new 0 0 36 36;" xml:space="preserve">
<style type="text/css">
	.st0{fill:#FFFFFF;}
</style>
<g transform="translate(0,-284.29999)">
	<path class="st0" d="M17.8,284.3c-9.9,0-18,8.1-18,18s8.1,18,18,18c9.9,0,18-8.1,18-18S27.8,284.3,17.8,284.3z M17.8,286.1
		c9,0,16.2,7.2,16.2,16.2c0,9-7.2,16.2-16.2,16.2c-9,0-16.2-7.2-16.2-16.2C1.6,293.3,8.9,286.1,17.8,286.1z M11.5,293.3
		c-0.5,0-0.9,0.4-0.9,0.9c0,0.5,0.4,0.9,0.9,0.9h12.6c0.5,0,0.9-0.4,0.9-0.9c0-0.5-0.4-0.9-0.9-0.9H11.5z M17.8,296.9
		c-0.2,0-0.5,0.1-0.6,0.3l-6.3,6.3c-0.4,0.4-0.4,0.9,0,1.3c0.4,0.4,0.9,0.4,1.3,0c0,0,0,0,0,0l4.8-4.8v10.4c0,0.5,0.4,0.9,0.9,0.9
		c0.5,0,0.9-0.4,0.9-0.9V300l4.8,4.8c0.3,0.4,0.9,0.4,1.3,0.1c0.4-0.3,0.4-0.9,0.1-1.3c0,0-0.1-0.1-0.1-0.1l-6.3-6.3
		C18.3,297,18.1,296.9,17.8,296.9L17.8,296.9z"/>
</g>
</svg>
