<?xml version="1.0" encoding="utf-8"?>
<!-- Generator: Adobe Illustrator 23.0.3, SVG Export Plug-In . SVG Version: 6.00 Build 0)  -->
<svg version="1.1"
	 id="Livello_1" xmlns:cc="http://creativecommons.org/ns#" xmlns:dc="http://purl.org/dc/elements/1.1/" xmlns:inkscape="http://www.inkscape.org/namespaces/inkscape" xmlns:rdf="http://www.w3.org/1999/02/22-rdf-syntax-ns#" xmlns:sodipodi="http://sodipodi.sourceforge.net/DTD/sodipodi-0.dtd" xmlns:svg="http://www.w3.org/2000/svg"
	 xmlns="http://www.w3.org/2000/svg" xmlns:xlink="http://www.w3.org/1999/xlink" x="0px" y="0px" viewBox="0 0 12.7 12.7"
	 style="enable-background:new 0 0 12.7 12.7;" xml:space="preserve">
<g transform="translate(0,-284.29998)">
	<path d="M4.6,287.4c-0.5,0.3-1.1,0.4-1.6,0.4c-0.2,0-0.3,0.1-0.3,0.3c0,0.1,0,0.1,0,0.2c0.2,0.4,0.6,0.7,1.1,0.7
		c0.6,0.1,1.1,0.6,1.2,1.3c0,0.3,0.3,0.6,0.6,0.5c0.1,0,0.2,0,0.3-0.1c0.2-0.1,0.4-0.3,0.6-0.4c0.1-0.1,0.4-0.1,0.5,0
		c0.1,0.1,0.1,0.2,0.1,0.3c-0.1,0.7-0.5,1.4-1,1.8c-0.1,0.1-0.2,0.2-0.3,0.3c-0.2,0.3-0.2,0.7-0.2,1c0,0.1,0,0.2-0.1,0.2
		c-0.4,0.3-0.6,0.7-0.7,1.2c0,0.3-0.3,0.5-0.7,0.5c-0.3,0-0.5-0.3-0.5-0.6c0-0.8,0-1.6,0.1-2.3c0-0.2-0.1-0.4-0.2-0.4
		c-0.8-0.4-1.1-1.3-0.8-2.1c0.1-0.2,0.1-0.4,0-0.6c-0.4-0.8-1-1.5-1.8-1.9c0.8-1.5,2.2-2.6,3.8-3.1c0.3,0.4,0.6,0.9,0.7,1.5
		C5.4,286.6,5.2,287.2,4.6,287.4L4.6,287.4z"/>
	<path d="M7.9,286.7c0.1-0.7,0.5-1.3,1.2-1.7c0.9,0.4,1.6,1,2.2,1.8c-0.5,0.2-1,0.1-1.4-0.2c-0.2-0.1-0.4-0.1-0.6,0
		c-0.3,0.2-0.6,0.4-0.9,0.5c-0.2,0.1-0.4,0-0.5-0.2C7.9,286.8,7.9,286.7,7.9,286.7L7.9,286.7z"/>
	<path d="M9.5,291.3c-0.7-0.2-1.1-0.9-0.9-1.6c0.2-0.7,0.9-1.1,1.6-0.9c0,0,0.1,0,0.1,0c0.7,0.1,1.4,0.2,2.1,0.1
		c-0.2-0.7-0.5-1.5-1-2.1c-0.6,0.2-1.2,0.2-1.7-0.2c-0.1-0.1-0.2-0.1-0.3,0c-0.3,0.3-0.6,0.5-1,0.6c-0.3,0.1-0.7-0.1-0.8-0.4
		c0-0.1,0-0.2,0-0.3c0.1-0.7,0.5-1.4,1.1-1.8c-1.2-0.5-2.6-0.6-4-0.3c0.3,0.4,0.6,0.9,0.7,1.5c0.2,0.7-0.2,1.3-0.8,1.6
		C4.2,287.9,3.6,288,3,288c0,0-0.1,0-0.1,0.1c0,0,0,0,0,0c0.2,0.3,0.5,0.6,0.9,0.6c0.7,0.1,1.3,0.7,1.3,1.5c0,0.2,0.2,0.3,0.4,0.3
		c0.1,0,0.1,0,0.2-0.1c0.2-0.1,0.4-0.3,0.5-0.4c0.2-0.2,0.6-0.2,0.8,0c0.1,0.1,0.2,0.3,0.2,0.5c-0.1,0.8-0.5,1.5-1.1,2
		c-0.1,0.1-0.2,0.2-0.2,0.3c-0.1,0.3-0.2,0.6-0.2,0.9c0,0.2,0,0.3-0.2,0.4c-0.3,0.2-0.6,0.6-0.6,1c-0.1,0.4-0.5,0.8-0.9,0.7
		c-0.4-0.1-0.7-0.4-0.7-0.8c0-0.8,0-1.6,0.1-2.4c0-0.1,0-0.2-0.1-0.2c-0.9-0.5-1.3-1.5-0.9-2.4c0-0.1,0-0.3,0-0.4
		c-0.4-0.8-1-1.4-1.7-1.8c-1.5,3.1-0.2,6.9,2.9,8.5c2.4,1.2,5.3,0.7,7.2-1.2c0.3-0.5,0.2-1.1-0.2-1.5c-0.2-0.2-0.2-0.4-0.1-0.6
		c0.2-0.2,0.2-0.5,0.2-0.8c0-0.5-0.4-0.9-1-0.9c0,0-0.1,0-0.1,0C9.6,291.4,9.5,291.3,9.5,291.3L9.5,291.3z"/>
	<path d="M10.2,289.1c-0.5-0.2-1.2,0.1-1.4,0.6c-0.2,0.5,0.1,1.2,0.6,1.4c0,0,0.1,0,0.1,0c0,0,0.1,0,0.1,0c0.6-0.1,1.2,0.4,1.3,1
		c0,0,0,0.1,0,0.1c0,0.3-0.1,0.6-0.3,0.9c-0.1,0.1,0,0.2,0,0.3c0.3,0.3,0.5,0.8,0.4,1.3c1.3-1.5,1.8-3.6,1.3-5.5
		C11.7,289.3,11,289.2,10.2,289.1L10.2,289.1z"/>
</g>
<text transform="matrix(1 0 0 1 0 27.7)" style="font-family:'HelveticaNeue-Bold'; font-size:5px;">Created by Phạm Thanh Lộc</text>
<text transform="matrix(1 0 0 1 0 32.7)" style="font-family:'HelveticaNeue-Bold'; font-size:5px;">from the Noun Project</text>
</svg>
