<?xml version="1.0" encoding="utf-8"?>
<!-- Generator: Adobe Illustrator 23.0.3, SVG Export Plug-In . SVG Version: 6.00 Build 0)  -->
<svg version="1.1"
	 id="Livello_1" xmlns:cc="http://creativecommons.org/ns#" xmlns:dc="http://purl.org/dc/elements/1.1/" xmlns:inkscape="http://www.inkscape.org/namespaces/inkscape" xmlns:rdf="http://www.w3.org/1999/02/22-rdf-syntax-ns#" xmlns:sodipodi="http://sodipodi.sourceforge.net/DTD/sodipodi-0.dtd" xmlns:svg="http://www.w3.org/2000/svg"
	 xmlns="http://www.w3.org/2000/svg" xmlns:xlink="http://www.w3.org/1999/xlink" x="0px" y="0px" viewBox="0 0 18.8 18.7"
	 style="enable-background:new 0 0 18.8 18.7;" xml:space="preserve">
<style type="text/css">
	.st0{fill:#FFFFFF;}
</style>
<path class="st0" d="M6.9,4.6C6.1,5,5.3,5.2,4.5,5.2C4.2,5.2,4,5.4,4,5.6c0,0.1,0,0.2,0.1,0.2C4.4,6.5,5,6.9,5.6,7
	c0.9,0.2,1.6,1,1.7,1.9c0.1,0.5,0.5,0.8,1,0.8c0.1,0,0.3-0.1,0.4-0.1C9,9.3,9.2,9.1,9.5,8.9c0.2-0.2,0.6-0.2,0.8,0
	c0.1,0.1,0.2,0.3,0.1,0.4c-0.1,1.1-0.7,2-1.5,2.7c-0.2,0.1-0.3,0.3-0.4,0.5c-0.2,0.5-0.3,1-0.3,1.5c0,0.1,0,0.2-0.1,0.3
	c-0.6,0.4-1,1-1.1,1.7c-0.1,0.5-0.5,0.8-1,0.7c-0.4-0.1-0.7-0.4-0.8-0.9c0-1.2,0-2.3,0.2-3.4c0-0.3-0.1-0.5-0.3-0.7
	C4,11.2,3.5,9.9,3.9,8.7c0.1-0.3,0.1-0.6,0-0.9C3.3,6.6,2.3,5.6,1.1,5c1.2-2.2,3.2-3.9,5.7-4.6C7.3,1,7.7,1.8,7.9,2.6
	C8,3.4,7.6,4.2,6.9,4.6L6.9,4.6z"/>
<path class="st0" d="M11.7,3.5c0.2-1.1,0.8-2,1.7-2.5c1.3,0.6,2.4,1.5,3.3,2.6c-0.7,0.3-1.5,0.2-2.1-0.3c-0.3-0.2-0.6-0.2-0.8,0
	c-0.4,0.3-0.9,0.6-1.4,0.8c-0.3,0.1-0.6-0.1-0.7-0.4C11.7,3.7,11.7,3.6,11.7,3.5L11.7,3.5z"/>
<path class="st0" d="M14,10.4C13,10.1,12.4,9,12.7,8c0.3-1,1.4-1.6,2.4-1.3c0,0,0.1,0,0.1,0c1,0.2,2.1,0.2,3.1,0.2
	c-0.3-1.1-0.8-2.1-1.5-3.1c-0.8,0.3-1.7,0.2-2.5-0.3c-0.1-0.1-0.3-0.1-0.4,0c-0.4,0.4-0.9,0.7-1.5,0.9c-0.5,0.2-1-0.1-1.2-0.6
	c0-0.1-0.1-0.3,0-0.4c0.2-1.1,0.8-2,1.7-2.7c-1.8-0.8-3.9-1-5.9-0.5c0.5,0.6,0.8,1.4,1,2.2c0.2,1-0.2,2-1.1,2.4
	C6.2,5.3,5.4,5.5,4.5,5.5c-0.1,0-0.1,0.1-0.1,0.1c0,0,0,0,0,0.1c0.3,0.5,0.8,0.8,1.3,0.9c1.1,0.2,1.9,1.1,2,2.2
	c0,0.3,0.3,0.5,0.6,0.5c0.1,0,0.2,0,0.2-0.1C8.8,9.1,9,8.9,9.3,8.6c0.4-0.3,0.9-0.3,1.2,0c0.2,0.2,0.3,0.5,0.2,0.7
	c-0.1,1.2-0.7,2.2-1.6,2.9c-0.1,0.1-0.3,0.2-0.3,0.4c-0.2,0.4-0.3,0.8-0.2,1.3c0,0.3-0.1,0.5-0.3,0.6c-0.5,0.3-0.8,0.9-0.9,1.5
	c-0.1,0.7-0.7,1.1-1.4,1c-0.6-0.1-1-0.6-1-1.2c0-1.2,0-2.3,0.2-3.5c0-0.1-0.1-0.3-0.2-0.3c-1.3-0.7-1.9-2.2-1.4-3.6
	c0.1-0.2,0.1-0.4,0-0.6C3,6.8,2.1,5.9,1,5.3c-2.3,4.6-0.4,10.2,4.3,12.5c3.6,1.8,7.8,1.1,10.7-1.7c0.5-0.7,0.3-1.7-0.3-2.3
	c-0.2-0.2-0.3-0.6-0.1-0.9c0.2-0.3,0.4-0.7,0.4-1.2c0-0.8-0.7-1.4-1.4-1.4c-0.1,0-0.1,0-0.2,0C14.2,10.4,14.1,10.4,14,10.4L14,10.4z
	"/>
<path class="st0" d="M15.2,7.1c-0.8-0.3-1.7,0.1-2,0.9c-0.3,0.8,0.1,1.7,0.9,2c0,0,0.1,0,0.1,0c0,0,0.1,0,0.1,0c1-0.1,1.8,0.5,2,1.5
	c0,0.1,0,0.1,0,0.2c0,0.5-0.1,1-0.4,1.4c-0.1,0.1-0.1,0.3,0,0.4c0.5,0.5,0.7,1.2,0.6,1.9c1.9-2.3,2.6-5.3,2-8.2
	C17.4,7.3,16.3,7.3,15.2,7.1L15.2,7.1z"/>
</svg>
