<?xml version="1.0" encoding="utf-8"?>
<!-- Generator: Adobe Illustrator 23.0.3, SVG Export Plug-In . SVG Version: 6.00 Build 0)  -->
<svg version="1.1" id="Livello_1" xmlns="http://www.w3.org/2000/svg" xmlns:xlink="http://www.w3.org/1999/xlink" x="0px" y="0px"
	 viewBox="0 0 24 24" style="enable-background:new 0 0 24 24;" xml:space="preserve">
<style type="text/css">
	.st0{fill:#FFFFFF;}
</style>
<path class="st0" d="M1.2,5.5L1.2,5.5c0,0.6,0.5,1.1,1.1,1.1h19.4c0.6,0,1.1-0.5,1.1-1.1l0,0c0-0.6-0.5-1.1-1.1-1.1H2.3
	C1.7,4.5,1.2,5,1.2,5.5z M1.2,12L1.2,12c0,0.6,0.5,1.1,1.1,1.1h19.4c0.6,0,1.1-0.5,1.1-1.1l0,0c0-0.6-0.5-1.1-1.1-1.1H2.3
	C1.7,10.9,1.2,11.4,1.2,12z M1.2,18.5L1.2,18.5c0,0.6,0.5,1.1,1.1,1.1h19.4c0.6,0,1.1-0.5,1.1-1.1l0,0c0-0.6-0.5-1.1-1.1-1.1H2.3
	C1.7,17.4,1.2,17.9,1.2,18.5z"/>
</svg>
